# Alias OBJ Model File
# Exported from SketchUp, (c) 2000-2012 Trimble Navigation Limited
# File units = meters

mtllib tavolo.mtl

g Mesh1 Model

usemtl _3
v 0.05 1 -2.45
vt -0.01 0.49
vn 2.88243e-16 -1 -2.50802e-16
v -1.80478e-16 1 -0.05
vt -2.1553e-17 0.01
v -5.41434e-16 1 -2.45
vt 5.06382e-17 0.49
f 1/1/1 2/2/1 3/3/1

v 0.05 1 -0.05
vt -0.01 0.01
f 2/2/1 1/1/1 4/4/1

usemtl BackColor
vt 9.96815e-15 96.4567
vn -2.88243e-16 1 2.50802e-16
vt -4.24271e-15 1.9685
vt -1.9685 96.4567
f 3/5/2 2/6/2 1/7/2

usemtl _3
vt -0.01 0.2
vn -1 -9.21621e-17 1.05122e-16
v -1.80478e-16 1.05 -2.5
vt -0.5 0.21
vt -0.49 0.2
f 2/8/3 5/9/3 3/10/3

v -1.80478e-16 1.05 -0
vt -3.79444e-33 0.21
f 2/8/3 6/11/3 5/9/3

v 0 0 -0
vt 0 0
f 6/11/3 2/8/3 7/12/3

usemtl BackColor
vn 1 9.21621e-17 -1.05122e-16
vt -1.9685 39.3701
vt -7.46937e-31 41.3386
f 7/12/4 2/13/4 6/14/4

usemtl _3
v 0 0 -0.05
vt -0.01 -9.68827e-35
f 8/15/3 7/12/3 2/8/3

usemtl BackColor
vt -1.9685 -1.90714e-32
f 2/13/4 7/12/4 8/16/4

usemtl _3
v 0.05 0 -0.05
vn 0 -1 -0
vt 0 0.01
f 9/4/5 7/12/5 8/17/5

v 0.05 0 -0
vt -0.01 0
f 7/12/5 9/4/5 10/18/5

usemtl BackColor
vt 0 1.9685
vn -0 1 0
vt -1.9685 1.9685
f 8/19/6 7/12/6 9/20/6

vt -1.9685 0
f 10/21/6 9/20/6 7/12/6

usemtl _3
vt 0.01 1.29718e-18
vn 1 -1.29718e-16 -0
v 0.05 1 -0
vt 0 0.2
vt 0 1.29718e-18
f 9/22/7 11/23/7 10/24/7

vt 0.01 0.2
f 11/23/7 9/22/7 4/25/7

usemtl BackColor
vt 0 2.55351e-16
vn -1 1.29718e-16 0
vt 0 39.3701
vt 1.9685 2.55351e-16
f 10/26/8 11/27/8 9/28/8

usemtl _3
vn -9.13826e-18 -8.55059e-19 1
vt 0.01 -7.81375e-38
f 11/25/9 7/12/9 10/29/9

vt -3.60956e-17 0.21
f 7/12/9 11/25/9 6/30/9

usemtl BackColor
vt 1.9685 -1.53814e-35
vn 9.13826e-18 8.55059e-19 -1
vt 1.9685 39.3701
f 10/31/10 7/12/10 11/32/10

vt -7.10543e-15 41.3386
f 6/33/10 11/32/10 7/12/10

usemtl _3
v 4.00488 1.05 7.13948e-17
vt 0.800976 0.21
f 11/25/9 12/34/9 6/30/9

v 3.95451 1 -0
vt 0.790901 0.2
f 13/35/9 12/34/9 11/25/9

v 3.95451 0 -0
vt 0.790901 -6.17991e-36
f 14/36/9 12/34/9 13/35/9

v 4.00488 0 7.13948e-17
vt 0.800976 5.95073e-36
f 12/34/9 14/36/9 15/37/9

usemtl BackColor
vt 157.673 1.1714e-33
vt 155.689 -1.21652e-33
vt 157.673 41.3386
f 15/38/10 14/39/10 12/40/10

usemtl _3
vt -0.790901 0
v 4.00488 0 -0.05
vt -0.800976 0.01
vt -0.800976 -1.4279e-17
f 14/41/5 16/42/5 15/43/5

v 3.95451 0 -0.05
vt -0.790901 0.01
f 16/42/5 14/41/5 17/44/5

usemtl BackColor
vt -155.689 1.9685
vt -155.689 0
vt -157.673 1.9685
f 17/45/6 14/46/6 16/47/6

usemtl FrontColor
vn -1 0 -0
v 3.95451 1 -0.05
f 14/12/11 18/13/11 17/21/11

f 18/13/11 14/12/11 13/27/11

usemtl BackColor
vn 1 -0 0
f 13/27/12 14/12/12 18/13/12

vt 155.689 39.3701
f 13/48/10 12/40/10 14/39/10

f 11/32/10 12/40/10 13/48/10

f 6/33/10 12/40/10 11/32/10

usemtl _3
vt 0.800976 -1.4279e-17
vn -4.0558e-16 1 -0
vt 4.90763e-17 0.5
vt 4.90763e-17 0
f 12/49/13 5/50/13 6/51/13

v 4.00488 1.05 -2.5
vt 0.800976 0.5
f 5/50/13 12/49/13 19/52/13

usemtl BackColor
vt 9.66068e-15 0
vn 4.0558e-16 -1 0
vt 9.66068e-15 98.4252
vt 157.673 -2.81082e-15
f 6/53/14 5/54/14 12/55/14

vt -98.4252 41.3386
f 5/56/4 6/14/4 2/13/4

vt -96.4567 39.3701
f 3/57/4 5/56/4 2/13/4

usemtl _3
v -1.80478e-16 0 -2.5
vt -0.5 -1.51749e-33
f 3/10/3 5/9/3 20/58/3

usemtl BackColor
vt -98.4252 -2.98718e-31
f 20/59/4 5/56/4 3/57/4

usemtl _3
vt -5.21565e-16 0.21
vn -1.11532e-15 4.28488e-15 -1
v 0.05 0 -2.5
vt -0.01 -2.14244e-15
vt -5.21565e-16 -2.14244e-15
f 5/60/15 21/61/15 20/62/15

v 0.05 1 -2.5
f 21/61/15 5/60/15 22/8/15

usemtl BackColor
vt -1.0267e-13 -4.2174e-13
vn 1.11532e-15 -4.28488e-15 1
vt -1.9685 -4.2174e-13
vt -1.0267e-13 41.3386
f 20/63/16 21/64/16 5/65/16

usemtl _3
v 0.05 3.60956e-17 -2.45
vn -5.21156e-30 -1 7.21911e-16
vt 3.60956e-17 0.5
vt -0.01 0.5
f 23/1/17 20/66/17 21/67/17

v -5.41434e-16 3.60956e-17 -2.45
vt 1.08287e-16 0.49
f 20/66/17 23/1/17 24/68/17

usemtl BackColor
vt 2.13163e-14 96.4567
vn 5.21156e-30 1 -7.21911e-16
vt 7.10543e-15 98.4252
f 24/69/18 23/7/18 20/70/18

usemtl _3
vn -7.21911e-15 7.21911e-16 1
vt -3.64565e-15 3.60956e-16
vt 0.01 3.60956e-16
f 1/25/19 24/71/19 23/72/19

vt -3.64565e-15 0.2
f 24/71/19 1/25/19 3/73/19

usemtl BackColor
vt 1.9685 7.10543e-14
vn 7.21911e-15 -7.21911e-16 -1
vt -7.17648e-13 7.10543e-14
f 23/74/20 24/75/20 1/32/20

vt -7.17648e-13 39.3701
f 3/76/20 1/32/20 24/75/20

usemtl _3
vt -0.49 7.21911e-18
f 20/58/3 24/77/3 3/10/3

usemtl BackColor
vt -96.4567 1.42109e-15
f 3/57/4 24/78/4 20/59/4

usemtl _3
vt 0.5 -5.63993e-20
vn 1 5.63993e-18 7.21911e-15
vt 0.49 0.2
vt 0.49 7.16271e-18
f 21/79/21 1/80/21 23/81/21

vt 0.5 0.2
f 1/80/21 21/79/21 22/82/21

usemtl BackColor
vt 96.4567 1.40998e-15
vn -1 -5.63993e-18 -7.21911e-15
vt 96.4567 39.3701
vt 98.4252 -1.11022e-17
f 23/83/22 1/84/22 21/85/22

vt 98.4252 39.3701
f 22/86/22 21/85/22 1/84/22

f 22/13/16 5/65/16 21/64/16

usemtl _3
v 3.95488 1 -2.5
vt -0.790976 0.2
f 22/8/15 5/60/15 25/87/15

usemtl BackColor
vt -155.704 39.3701
f 25/88/16 5/65/16 22/13/16

usemtl _3
vt -0.800976 0.21
f 19/89/15 25/87/15 5/60/15

v 3.95488 1.80478e-16 -2.5
vt -0.790976 -2.10634e-15
f 19/89/15 26/90/15 25/87/15

v 4.00488 -7.86866e-30 -2.5
vt -0.800976 -2.14244e-15
f 26/90/15 19/89/15 27/91/15

usemtl BackColor
vt -157.673 -4.2174e-13
vt -157.673 41.3386
vt -155.704 -4.14635e-13
f 27/92/16 19/93/16 26/94/16

usemtl _3
vt 0.5 0.21
vn 1 -1.61039e-15 -6.6974e-16
v 4.00488 3.60956e-17 -2.45
vt 0.49 1.2971e-15
vt 0.5 1.28989e-15
f 19/95/23 28/96/23 27/97/23

v 4.00488 1 -2.45
f 19/95/23 29/80/23 28/96/23

v 4.00488 1 -0.05
f 19/95/23 30/25/23 29/80/23

vt -5.50725e-16 0.21
f 30/25/23 19/95/23 12/98/23

usemtl BackColor
vt -1.0841e-13 41.3386
vn -1 1.61039e-15 6.6974e-16
vt 98.4252 41.3386
f 12/99/24 19/100/24 30/32/24

vt 157.673 98.4252
f 19/101/14 12/55/14 5/54/14

f 5/65/16 25/88/16 19/93/16

f 25/88/16 26/94/16 19/93/16

usemtl _3
v 3.95488 2.16573e-16 -2.45
vt -0.49 2.89839e-15
vn -1 3.60956e-15 -1.56347e-30
vt -0.5 0.2
vt -0.5 2.89117e-15
f 31/102/25 25/103/25 26/104/25

v 3.95488 1 -2.45
f 25/103/25 31/102/25 32/10/25

usemtl BackColor
vn 1 -3.60956e-15 1.56347e-30
vt -96.4567 5.70549e-13
vt -98.4252 39.3701
f 32/57/26 31/105/26 25/106/26

usemtl FrontColor
vt 155.704 -8.27072e-13
vn -3.02062e-29 -8.66294e-15 1
vt 157.673 39.3701
vt 155.704 39.3701
f 31/107/27 29/108/27 32/109/27

vt 157.673 -8.34177e-13
f 29/108/27 31/107/27 28/110/27

usemtl BackColor
vn 3.02062e-29 8.66294e-15 -1
f 28/110/28 31/107/28 29/108/28

usemtl _3
vt -0.790976 0.49
vn -3.60956e-15 -1 7.21911e-16
vt -0.800976 0.5
vt -0.800976 0.49
f 31/111/29 27/112/29 28/113/29

vt -0.790976 0.5
f 27/112/29 31/111/29 26/114/29

usemtl BackColor
vt -155.704 98.4252
vn 3.60956e-15 1 -7.21911e-16
vt -155.704 96.4567
vt -157.673 98.4252
f 26/115/30 31/116/30 27/117/30

vt -98.4252 5.69128e-13
f 26/118/26 25/106/26 31/105/26

vt -157.673 96.4567
f 28/119/30 27/117/30 31/116/30

vt 98.4252 2.53914e-13
vt 96.4567 2.55336e-13
f 27/120/24 28/121/24 19/100/24

f 28/121/24 29/84/24 19/100/24

f 29/84/24 30/32/24 19/100/24

usemtl _3
f 30/42/1 32/111/1 29/113/1

f 18/44/1 32/111/1 30/42/1

f 18/44/1 25/114/1 32/111/1

vt -0.01 5.01604e-17
f 11/122/1 25/114/1 18/44/1

f 4/4/1 25/114/1 11/122/1

f 4/4/1 22/67/1 25/114/1

f 4/4/1 1/1/1 22/67/1

usemtl BackColor
f 4/20/2 1/7/2 2/6/2

vt -1.9685 98.4252
f 22/123/2 1/7/2 4/20/2

f 25/115/2 22/123/2 4/20/2

vt -1.9685 9.8741e-15
f 11/124/2 25/115/2 4/20/2

f 18/45/2 25/115/2 11/124/2

f 32/116/2 25/115/2 18/45/2

f 30/47/2 32/116/2 18/45/2

f 29/119/2 32/116/2 30/47/2

f 32/109/28 29/108/28 31/107/28

usemtl _3
vt -0.800976 -7.51991e-20
vn 3.40893e-16 7.51991e-18 -1
vt -0.790901 0.2
vt -0.800976 0.2
f 16/125/31 18/126/31 30/127/31

vt -0.790901 -7.51991e-20
f 18/126/31 16/125/31 17/128/31

usemtl BackColor
vt -155.689 -1.4803e-17
vn -3.40893e-16 -7.51991e-18 1
vt -157.673 -1.4803e-17
vt -155.689 39.3701
f 17/129/32 16/130/32 18/131/32

vt -157.673 39.3701
f 30/132/32 18/131/32 16/130/32

usemtl _3
vt 0.01 1.28989e-15
f 12/98/23 16/133/23 30/25/23

vt -5.50725e-16 1.28989e-15
f 16/133/23 12/98/23 15/134/23

usemtl BackColor
vt -1.0841e-13 2.53914e-13
vt 1.9685 2.53914e-13
f 15/135/24 12/99/24 16/136/24

f 30/32/24 16/136/24 12/99/24

vt -157.673 -2.81082e-15
f 15/137/6 16/47/6 14/46/6

f 17/21/12 18/13/12 14/12/12

usemtl _3
vt -0.790901 5.01604e-17
f 13/138/1 11/122/1 18/44/1

usemtl BackColor
vt -155.689 9.8741e-15
f 18/45/2 11/124/2 13/139/2

f 4/32/8 9/28/8 11/27/8

usemtl _3
vn 0 0 -1
vt 3.60956e-17 0.2
f 9/18/33 2/140/33 4/8/33

f 2/140/33 9/18/33 8/12/33

usemtl BackColor
vn -0 -0 1
vt 7.10543e-15 39.3701
f 8/12/34 9/21/34 2/141/34

f 4/13/34 2/141/34 9/21/34

f 21/123/18 20/70/18 23/7/18

g Mesh2 Model

l 5 19

l 6 5

l 7 6

l 7 10

l 7 8

l 8 9

l 8 2

l 4 2

l 9 4

l 10 9

l 10 11

l 11 4

l 13 11

l 14 13

l 15 14

l 15 12

l 15 16

l 16 17

l 30 16

l 29 30

l 29 28

l 32 29

l 25 32

l 22 25

l 21 22

l 20 21

l 20 5

l 20 24

l 24 23

l 3 24

l 2 3

l 3 1

l 23 1

l 21 23

l 22 1

l 25 26

l 26 31

l 27 26

l 27 19

l 27 28

l 28 31

l 32 31

l 19 12

l 12 6

l 30 18

l 18 13

l 17 18

l 14 17

